<svg version="1.1" xmlns="http://www.w3.org/2000/svg" style="display: block;" viewBox="0 0 2048 2048" width="1024" height="1024">
<path transform="translate(0,0)" fill="rgb(254,254,254)" d="M -0 -0 L 2048 0 L 2048 2048 L -0 2048 L -0 -0 z"/>
<path transform="translate(0,0)" fill="rgb(254,145,36)" d="M 1151.95 280.5 C 1153.3 280.482 1153.75 280.864 1154.9 281.5 L 1155.76 284.5 C 1137.35 300.801 1113.2 310.17 1092.06 322.511 L 1034.02 359.779 L 1031.5 359.145 C 1029.5 357.74 1027.44 356.743 1026.35 354.5 L 1151.95 280.5 z"/>
<path transform="translate(0,0)" fill="rgb(254,145,36)" d="M 1152.99 267.5 C 1154.76 267.003 1155.71 267.087 1157.5 267.49 L 1157.68 269.5 C 1155.23 273.441 1151.71 276.339 1147.75 278.701 C 1132.35 287.903 1115.11 294.858 1099.41 303.837 L 1018.55 352.216 C 1010.36 356.736 1001.68 358.428 993.5 363.598 C 991.941 364.368 991.053 365.012 989.281 364.981 C 991.228 361.301 998.108 357.439 1001.58 354.84 C 1034.02 330.543 1069.29 310.784 1104.81 291.418 C 1120.5 282.864 1136.08 273.46 1152.99 267.5 z"/>
<path transform="translate(0,0)" fill="rgb(254,145,36)" d="M 1564.61 1097.25 L 1580.62 1055.68 C 1585.25 1044.16 1589.91 1032.11 1596.52 1021.56 C 1609.2 1022.24 1619.99 1023.38 1632.17 1027.16 C 1635.48 1028.18 1639.71 1028.99 1642.56 1030.99 C 1625.83 1048.22 1606.02 1061.66 1588.92 1078.33 C 1579.08 1087.92 1571.47 1099.51 1562.9 1110.17 L 1564.61 1097.25 z"/>
<path transform="translate(0,0)" fill="rgb(0,176,157)" d="M 422.405 1410.5 L 422.73 1411.62 C 423.005 1414.56 421.602 1419.2 421 1422.18 L 416.358 1445.36 C 411.256 1475.19 405.833 1505.08 404.255 1535.34 C 403.923 1541.7 405.803 1575.16 404 1577.94 C 401.353 1578.17 398.865 1578.31 396.461 1579.54 C 384.799 1585.49 385.671 1574.47 375.803 1571.98 L 374.781 1571.77 C 373.665 1571.35 373.689 1571.41 372.5 1570.64 C 366.994 1567.09 365.233 1560.77 364.083 1554.68 L 363.784 1553 L 363.513 1551.58 C 361.845 1542.02 362.591 1530.88 364.194 1521.31 C 370.994 1480.7 398.852 1443.36 422.405 1410.5 z"/>
<path transform="translate(0,0)" fill="rgb(0,176,157)" d="M 692.8 1314.05 C 700.699 1318.63 708.356 1324.14 710.593 1333.59 C 712.637 1342.23 711.713 1353.58 709.086 1361.98 C 701.652 1363.8 693.79 1370.03 687.233 1374.16 L 636.628 1408.38 C 624.587 1416.89 584.983 1449.45 573.078 1450.77 C 570.602 1451.04 568.22 1450.46 566.281 1448.85 C 563.647 1446.67 561.079 1441.97 561.061 1438.5 C 561.037 1433.89 564.867 1427.16 566.992 1423.14 C 581.315 1396.07 602.583 1373.25 624.789 1352.51 L 692.8 1314.05 z"/>
<path transform="translate(0,0)" fill="rgb(0,176,157)" d="M 1740.76 1239.71 C 1748.29 1240.96 1762.96 1241.37 1767.5 1248.1 C 1769.77 1251.46 1767.28 1256.68 1771.12 1258.3 C 1781.23 1262.59 1793.08 1269.33 1797.28 1279.99 C 1799.34 1285.21 1799.95 1291.16 1797.75 1296.46 C 1793.15 1307.5 1784.57 1316.02 1776.89 1324.89 L 1777.3 1325.86 C 1780.24 1332.84 1781.85 1342.03 1778.85 1349.27 C 1776.46 1355.03 1771.64 1358.93 1766.52 1362.19 C 1756.67 1368.46 1745.39 1373.05 1734.75 1377.81 L 1692.26 1397.07 C 1679.54 1402.84 1666.56 1410.3 1653.62 1415.23 C 1660.22 1402.1 1668.57 1389.77 1675.53 1376.81 C 1699.68 1331.79 1722.6 1287.54 1740.76 1239.71 z"/>
<path transform="translate(0,0)" fill="rgb(254,47,51)" d="M 1588.42 1017.67 C 1589.86 1012.08 1592.71 1006.23 1594.79 1000.81 L 1615.73 952.933 L 1902.61 981.768 C 1896.66 1010.71 1887.33 1038.06 1861.46 1055.25 C 1841.72 1068.37 1815.61 1071.31 1792.74 1066.44 C 1771.49 1061.91 1752.45 1052.09 1732.08 1045.02 C 1685.63 1028.91 1637.61 1019.5 1588.42 1017.67 z"/>
<path transform="translate(0,0)" fill="rgb(254,145,36)" d="M 1512.1 696.161 L 1513.61 695.911 C 1521.17 694.528 1529.95 689.75 1537.17 686.82 L 1572.45 673.431 C 1631.83 651.883 1690.41 633.952 1753.09 624.951 C 1763.38 623.474 1780.33 619.739 1790.12 623.776 C 1792.16 626.247 1792.02 626.751 1792.3 630 C 1790.63 633.146 1788.31 634.525 1784.83 635.522 C 1772.41 639.073 1759.04 640.734 1746.38 643.412 L 1685.84 658.65 C 1673.8 662.093 1661.66 665.178 1650.01 669.826 C 1664.9 669.848 1681.94 663.008 1696.52 659.559 C 1717.38 654.622 1827.28 628.631 1840.11 640.866 C 1841.59 642.287 1841.49 643.083 1841.99 645 C 1840.98 648.183 1838.89 650.046 1835.96 651.537 C 1828.47 655.336 1818.63 655.117 1810.5 656.364 C 1795.94 658.596 1780.19 660.446 1766 664.059 C 1775.32 664.724 1808.98 661.836 1814.5 665.7 C 1814.93 667.35 1815.95 669.009 1814.98 670.559 C 1809.97 678.558 1790.34 675.408 1784.93 683 L 1785.73 683.51 C 1788.47 685.303 1789.72 686.025 1791.04 689 C 1790.63 690.838 1790.05 691.506 1788.8 692.814 C 1787.3 694.383 1786.89 695.321 1786.5 697.511 C 1778.83 702.893 1771.91 706.234 1766.18 714 L 1766.5 714.991 C 1766.94 716.552 1766.83 715.959 1766.5 717.738 C 1758.15 723.103 1748.67 724.138 1739.21 726.481 L 1703.83 736.174 C 1696.68 738.219 1689.18 739.784 1682.41 742.88 C 1681.46 742.58 1676.12 734.569 1674.83 733.156 C 1667.66 725.297 1660.14 723.077 1649.88 722.427 L 1653.74 721.404 C 1648.66 719.317 1643.35 720.299 1638.37 722.408 C 1625.48 727.868 1618.97 755.538 1614.61 757.608 C 1610.99 759.324 1603.29 759.615 1599.05 760.5 L 1556.51 769.711 L 1486.23 787.742 L 1512.1 696.161 z"/>
<path transform="translate(0,0)" fill="rgb(254,47,51)" d="M 217.937 1296.2 C 224.112 1291.37 232.003 1287.55 238.805 1283.52 L 293.823 1252.32 L 416.465 1184.52 C 431.686 1176.55 447.093 1167.19 462.976 1160.7 C 465.8 1159.55 474.08 1157.72 476.955 1159.51 C 482.153 1162.76 486.514 1176.63 488.445 1182.58 L 473.903 1227.27 C 471.944 1233.55 470.039 1244.05 466.431 1249.39 C 464.46 1252.3 459.361 1254.95 456.299 1256.83 L 437 1269.05 C 404.42 1290.24 370.932 1312.17 342.2 1338.5 C 336.061 1344.13 328.895 1350.15 324.176 1357.01 C 321.433 1361 318.485 1366.82 320.5 1371.78 C 321.388 1373.96 322.555 1375.03 324.787 1375.73 C 337.363 1379.68 352.468 1374.29 364.401 1370.44 C 387.998 1362.83 411.93 1352.7 433.64 1340.66 C 436.735 1338.94 439.611 1337.09 442.884 1335.69 L 434.159 1366.67 L 427.88 1392.93 C 427.093 1395.81 426.223 1400.49 424.496 1402.84 C 423.57 1404.1 419.54 1406.12 418 1407 C 409.415 1411.87 399.811 1415.39 390.527 1418.67 C 360.469 1429.28 328.389 1434.27 297.241 1425.17 C 270.523 1417.35 247.529 1397.98 233.95 1373.7 C 224.438 1356.69 218.248 1335.49 217.786 1315.96 C 217.634 1309.54 218.732 1302.47 217.937 1296.2 z"/>
<path transform="translate(0,0)" fill="rgb(254,145,36)" d="M 1036.26 370.018 C 1058.44 350.621 1086.2 337.945 1111.81 323.728 C 1128.05 314.709 1144.14 305.555 1161.01 297.718 C 1167.25 294.817 1173.91 291.125 1180.5 289.157 C 1181.73 288.79 1182.59 288.868 1183.81 289.217 C 1185.72 292.285 1185.87 292.341 1185.5 295.911 C 1179.22 303.798 1167.23 307.702 1158.59 312.652 C 1151.05 316.969 1144.1 321.908 1136.31 325.82 C 1134.22 326.868 1134.65 326.034 1134.5 327.934 C 1142.58 328.678 1148.89 323.292 1156.91 324.263 L 1157.95 326 C 1156.26 329.582 1154.18 331.232 1151.33 333.811 C 1149.68 335.312 1150.24 334.646 1149.36 336.859 L 1151 337.988 L 1153.92 337.272 C 1155.51 339.662 1154.9 342.06 1154.63 344.757 C 1151.75 350.965 1141.99 354.368 1136.16 357.5 C 1139.72 358.687 1141.76 355.754 1144.41 358.5 L 1144 364.5 C 1140.27 367.69 1136.04 367.182 1132.44 369.5 C 1131.64 370.014 1131.33 373.185 1131.24 374.066 C 1120.2 384.785 1105.73 392.484 1093.92 402.551 C 1073.92 419.607 1030.98 470.138 1029.94 497.641 L 1030.08 501 L 1031.5 502.144 C 1038.15 500.696 1044.46 495.999 1050.17 492.379 L 1083.88 470.862 L 1140 439.973 C 1191.29 413.229 1244.71 388.434 1298.91 368.111 L 1388.82 338.725 C 1422.85 328.578 1458.75 318.479 1494.17 315.229 C 1502.15 314.497 1520.29 311.579 1527.38 315.587 C 1529.71 316.903 1530.82 318.279 1531.19 321 C 1531.88 326.128 1528.39 330.949 1525 334.335 C 1519.71 339.607 1513.66 343.935 1509.13 349.939 C 1526.1 350.263 1542.62 347.259 1559.33 344.56 L 1537.98 396 L 1519.77 441.689 C 1517.22 447.988 1514.41 457.232 1510.39 462.528 C 1508.73 464.729 1504.77 466.237 1502.26 467.335 L 1471.7 480.047 L 1426.63 502.298 C 1407.29 511.751 1387.47 521.456 1369.86 533.91 L 1500.49 487.25 L 1455.05 605.3 C 1446.69 594.434 1434.61 584.197 1420.5 582.376 C 1399.81 579.706 1381.83 587.777 1366.08 600.516 C 1359.4 605.922 1353.22 612.212 1347.77 618.852 C 1345.35 621.802 1342.29 627.336 1339.47 629.567 C 1337.92 630.791 1333.75 631.824 1331.8 632.706 C 1327.32 634.727 1323.01 637.253 1318.72 639.647 C 1313.57 625.069 1308.15 612.502 1297.13 601.321 C 1293.23 597.365 1289.24 594.121 1284.53 591.181 C 1283.69 590.654 1277.67 587.399 1277.46 586.892 C 1276.81 585.35 1277.04 581.175 1276.79 579.306 C 1275.37 568.612 1270.18 559.178 1260.3 554.337 C 1252.42 550.473 1241.19 548.687 1232.79 551.762 C 1228.61 553.296 1224.87 557.496 1221.68 560.537 L 1217.41 542.366 C 1241.01 526.029 1266.87 512.611 1292.33 499.392 L 1368.97 460.525 C 1388.44 451.094 1408.95 442.696 1427.55 431.647 C 1413.37 434.803 1399.76 440.319 1386.03 444.98 C 1325.22 465.618 1264.14 492.947 1207.75 523.763 L 1186.93 536.429 C 1177.85 526.609 1170.91 522.318 1157.34 521.811 C 1145.68 521.375 1136.99 525.643 1128.5 533.516 C 1120.99 540.483 1115.48 549.299 1111.34 558.623 C 1109.81 562.072 1108.52 566.659 1106.5 569.776 C 1105.52 571.29 1105.11 571.203 1103.44 571.605 C 1099.82 572.478 1097.53 575.533 1095.56 578.447 C 1091.6 584.298 1082.99 589.024 1077.09 593.011 C 1062.26 585.612 1043.53 581.224 1027.22 586.444 C 1025.57 586.975 1020.05 589.794 1018.75 589.643 C 1016.4 589.372 1012.45 586.923 1010 586.108 C 1001.33 583.223 992.139 582.727 983.076 582.877 C 951.76 583.397 921.217 608.393 900.277 629.494 C 893.79 636.031 887.632 644.696 880.171 649.995 C 882.254 645.139 885.576 640.447 888.298 635.889 L 911.797 599.709 L 977.435 506.794 L 1026.63 447.134 L 1048.84 421.874 C 1052.21 418.108 1057.49 413.509 1057.55 408.139 C 1057.69 395.105 1044.39 379.01 1036.26 370.018 z"/>
<path transform="translate(0,0)" fill="rgb(0,176,157)" d="M 364.288 961.775 C 369.997 949.113 379.288 937.534 386.59 925.745 C 389.08 921.725 393.39 915.393 393.287 910.542 C 393.239 908.279 392.161 908.002 390.642 906.5 C 375.89 908.261 320.76 997.061 308.307 1014.41 C 298.657 1027.85 288.677 1041.72 276.314 1052.82 C 263.263 1064.54 246.28 1075.62 228.018 1074.38 C 216.988 1073.63 206.07 1069.65 198.696 1061.19 C 196.486 1052.1 214.069 1036.47 216.381 1026.17 C 216.994 1023.44 217.05 1022.33 215.5 1020.02 C 212.427 1021.54 210.345 1025.25 208.274 1028 C 203.282 1034.64 196.101 1045.03 187.998 1047.79 C 182.684 1049.59 176.952 1049.6 171.923 1047.08 C 167.9 1045.07 166.572 1042.68 165.263 1038.5 C 166.153 1031.39 169.952 1026.03 173.793 1020.17 L 189.992 996.477 C 248.953 910.949 319.916 832.462 392.349 758.169 L 466.345 684.481 C 459.722 688.596 453.933 694.191 448.095 699.339 L 421.313 723.603 C 351.867 788.216 288.465 858.823 230.505 933.872 L 196.558 980.462 L 174.411 1011.34 C 171.865 1014.71 168.905 1019.7 165 1021.51 C 162.196 1020.67 160.409 1019.18 158.405 1017.11 C 153.388 1011.93 150.32 1004.16 150.368 996.965 C 150.787 933.314 262.065 796.422 304.342 748.643 L 432.91 615.864 C 492.29 558.483 556.602 505.313 622.722 455.918 C 707.218 392.796 797.928 331.86 897.404 295.137 C 911.311 290.003 925.308 285.747 939.667 282.068 C 944.586 280.807 951.456 278.373 956.5 278.977 C 959.189 279.3 960.155 280.49 961.788 282.5 C 955.126 285.639 944.432 286.954 939.825 293 L 940.5 296.706 C 939.432 299.366 937.646 299.38 935.165 300.44 C 901.451 314.838 869.409 334.35 838.441 353.855 L 747.28 413.669 C 714.597 436.082 680.628 458.377 650.5 484.148 L 650.5 485.344 L 873.342 344.956 C 909.805 325.379 945.226 305.594 987 300.635 C 991.655 300.082 999.291 298.548 1003.59 300.181 C 1005.87 301.046 1006.01 302.434 1006.93 304.5 C 1006.46 307.421 1005.48 309.247 1003.66 311.584 C 998.879 317.712 991.93 323.225 986.157 328.501 C 972.962 340.56 960.251 352.514 950.282 367.418 L 947.749 371.5 L 956.124 372.69 C 959.116 375.6 960.064 379.395 961.429 383.237 C 956.33 391.746 948.357 402.019 940.906 408.654 C 929.83 418.516 915.512 426.485 903.61 435.551 L 774.289 535.661 C 767.107 541.815 754.842 550.142 750.683 558.5 L 752 559.892 C 757.626 559.124 762.428 555.299 767.079 552.26 L 791.602 536.364 L 857.958 495.284 C 869.307 488.162 879.945 479.934 891.561 473.248 L 850.507 528.299 C 826.33 562.261 804.026 596.239 784.452 633.099 L 742.449 718.332 C 732.126 704.781 724.541 689.174 711.051 678.029 C 700.389 669.221 687.635 664.428 673.762 666.105 C 642.28 669.909 621.357 708.196 609.505 733.92 C 606.413 740.63 604.338 750.386 600 756.02 L 597.5 754.583 C 593.937 753.325 580.795 765.19 576.406 767.193 L 574.774 767.9 L 582.69 719.967 C 586.455 698.756 590.321 678.109 590.161 656.485 C 591.155 652.275 590.678 648.796 589.9 644.601 C 586.643 627.037 576.41 607.447 561.296 597.25 C 553.06 591.693 539.606 587.235 529.68 589.738 C 517.932 592.701 509.975 603.709 504.45 613.8 C 486.468 646.646 479.91 685.609 472.958 722 L 460.204 798 L 456.15 830.939 C 455.276 839.223 454.884 847.963 452.537 855.994 L 390.449 928.087 C 384.1 935.682 378.679 944.094 372.646 951.952 C 370.105 955.261 367.592 959.251 364.288 961.775 z"/>
<path transform="translate(0,0)" fill="rgb(0,0,0)" d="M 574.774 767.9 L 560.61 864.036 C 559.025 879.848 557.441 895.095 558.209 911.02 C 558.841 910.521 575.303 869.908 577.493 865.175 L 613.5 792.464 C 625.079 769.341 635.956 745.772 648.998 723.417 C 657.361 709.082 667.905 690.465 680.889 679.918 C 683.444 677.843 687.124 675.467 690.466 675.036 C 697.102 674.181 704.733 680.608 709.422 684.716 C 719.87 693.871 733.918 708.606 736.267 722.869 C 737.015 727.414 735.78 732.461 734.974 736.963 L 728.399 767.717 L 721.121 807.044 C 717.034 836.244 715.587 865.107 717.457 894.557 C 726.682 855.2 739.543 817.022 753.574 779.15 C 787.558 687.423 830.93 600.792 883.238 518.127 L 915.871 470.03 C 936.096 440.773 956.068 412.003 981.255 386.69 C 990.653 377.246 1001.77 366.198 1015.31 363.478 C 1023.1 361.913 1030.08 365.746 1036.26 370.018 C 1044.39 379.01 1057.69 395.105 1057.55 408.139 C 1057.49 413.509 1052.21 418.108 1048.84 421.874 L 1026.63 447.134 L 977.435 506.794 L 911.797 599.709 L 888.298 635.889 C 885.576 640.447 882.254 645.139 880.171 649.995 C 862.025 679.874 846.819 711.229 832.02 742.864 C 811.633 786.449 793.046 830.358 776.814 875.681 L 749.718 960.555 C 745.752 974.29 742.871 988.926 738.06 1002.34 C 736.812 1005.82 736.188 1007.22 733.329 1009.5 C 728.462 1010.18 724.67 1009.18 720.023 1007.97 C 705.755 1004.65 693.238 999.727 678.344 998.384 C 656.491 996.413 633.719 999.678 612.492 1004.74 C 572.775 1014.21 534.396 1031.04 499.727 1052.65 C 478.817 1065.68 457.811 1084.07 452.229 1109.08 L 451.587 1112.16 L 410.353 1136.79 L 223.122 1252.43 C 228.22 1230.71 234.782 1209.12 242.965 1188.36 C 258.407 1149.17 278.904 1111.21 298.352 1073.88 L 327.422 1018.26 C 332.419 1009.56 338.427 1001.42 343.744 992.891 C 350.271 982.426 356.583 971.413 364.288 961.775 C 367.592 959.251 370.105 955.261 372.646 951.952 C 378.679 944.094 384.1 935.682 390.449 928.087 L 452.537 855.994 C 454.884 847.963 455.276 839.223 456.15 830.939 L 460.204 798 L 472.958 722 C 479.91 685.609 486.468 646.646 504.45 613.8 C 509.975 603.709 517.932 592.701 529.68 589.738 C 539.606 587.235 553.06 591.693 561.296 597.25 C 576.41 607.447 586.643 627.037 589.9 644.601 C 590.678 648.796 591.155 652.275 590.161 656.485 C 590.321 678.109 586.455 698.756 582.69 719.967 L 574.774 767.9 z"/>
<path transform="translate(0,0)" fill="rgb(254,254,254)" d="M 452.537 855.994 C 454.884 847.963 455.276 839.223 456.15 830.939 L 460.204 798 L 472.958 722 C 479.91 685.609 486.468 646.646 504.45 613.8 C 509.975 603.709 517.932 592.701 529.68 589.738 C 539.606 587.235 553.06 591.693 561.296 597.25 C 576.41 607.447 586.643 627.037 589.9 644.601 C 590.678 648.796 591.155 652.275 590.161 656.485 C 585.77 637.109 575.668 614.536 557.903 603.852 C 555.42 602.359 552.124 600.809 549.243 601.808 C 536.387 606.264 528.082 623.023 523.238 634.525 C 512.3 660.505 506.688 689.963 501.06 717.533 C 488.728 777.956 479.47 839.624 479.882 901.427 C 480.029 923.481 480.726 948.803 489.261 969.432 C 494.507 982.11 505.818 997.148 518.958 1002.36 C 527.915 1005.92 546.616 1008.35 555.378 1003.82 C 561.6 1000.6 566.051 993.079 569.355 987.057 C 578.745 969.943 584.714 951.07 592.054 933.042 L 618.988 872 L 633.577 838.682 C 635.051 863.337 636.985 888.207 641.727 912.476 C 646.626 937.55 652.599 960.075 672.487 977.528 C 680.042 984.158 688.113 989.787 696.759 994.897 L 713.534 1004.38 C 715.22 1005.29 718.786 1006.67 720.023 1007.97 C 705.755 1004.65 693.238 999.727 678.344 998.384 C 656.491 996.413 633.719 999.678 612.492 1004.74 C 572.775 1014.21 534.396 1031.04 499.727 1052.65 C 478.817 1065.68 457.811 1084.07 452.229 1109.08 L 451.587 1112.16 L 410.353 1136.79 C 410.645 1135.13 410.345 1135.7 411.319 1134.39 C 417.63 1125.97 424.05 1115.89 427.442 1105.87 C 429.501 1099.78 430.424 1093.36 432.419 1087.26 C 441.205 1060.4 470.844 1042.68 491.919 1026.14 L 482.097 1016.97 C 463.033 996.708 457.435 965.996 454.49 939.363 C 452.423 920.669 451.521 902.053 451.907 883.257 C 444.17 894.53 434.888 905.03 426.351 915.725 L 393.435 959.68 L 364.5 1004.74 C 337.874 1046.89 313.015 1089.94 290.632 1134.5 L 289.765 1134.5 C 310.552 1087.3 338.057 1042.15 365.645 998.66 L 402.23 941.5 L 425.831 911.034 L 445.486 887.423 C 447.158 885.339 450.943 881.716 451.919 879.369 C 452.313 878.422 452.156 875.372 452.217 874.309 C 452.568 868.178 452.896 862.137 452.537 855.994 z"/>
<path transform="translate(0,0)" fill="rgb(254,145,36)" d="M 452.537 855.994 C 452.896 862.137 452.568 868.178 452.217 874.309 C 452.156 875.372 452.313 878.422 451.919 879.369 C 450.943 881.716 447.158 885.339 445.486 887.423 L 425.831 911.034 L 402.23 941.5 L 365.645 998.66 C 338.057 1042.15 310.552 1087.3 289.765 1134.5 L 290.632 1134.5 C 313.015 1089.94 337.874 1046.89 364.5 1004.74 L 393.435 959.68 L 426.351 915.725 C 434.888 905.03 444.17 894.53 451.907 883.257 C 451.521 902.053 452.423 920.669 454.49 939.363 C 457.435 965.996 463.033 996.708 482.097 1016.97 L 491.919 1026.14 C 470.844 1042.68 441.205 1060.4 432.419 1087.26 C 430.424 1093.36 429.501 1099.78 427.442 1105.87 C 424.05 1115.89 417.63 1125.97 411.319 1134.39 C 410.345 1135.7 410.645 1135.13 410.353 1136.79 L 223.122 1252.43 C 228.22 1230.71 234.782 1209.12 242.965 1188.36 C 258.407 1149.17 278.904 1111.21 298.352 1073.88 L 327.422 1018.26 C 332.419 1009.56 338.427 1001.42 343.744 992.891 C 350.271 982.426 356.583 971.413 364.288 961.775 C 367.592 959.251 370.105 955.261 372.646 951.952 C 378.679 944.094 384.1 935.682 390.449 928.087 L 452.537 855.994 z"/>
<path transform="translate(0,0)" fill="rgb(0,176,157)" d="M 1515.76 1256.44 L 1522 1257.95 L 1523.02 1259.5 C 1506.24 1309.46 1497.15 1361.27 1501.1 1414.05 C 1502.66 1434.96 1505.71 1455.09 1515.2 1474.04 C 1519.64 1482.91 1524.96 1489.81 1532.3 1496.46 L 1445.75 1548.69 L 1310.45 1633.29 L 1207.24 1702.31 C 1171.95 1725.96 1136.18 1750.9 1096.91 1767.66 C 1068.35 1779.85 1034.17 1789.45 1003.22 1781.35 C 979.385 1775.12 961.616 1762.44 949.142 1741 C 941.022 1727.05 937.294 1711.01 941.875 1695.24 C 954.744 1650.95 1038.44 1594.88 1075.95 1569.01 L 1150.07 1519.19 C 1165.16 1509.37 1180.18 1499.7 1194.51 1488.77 C 1197.81 1486.26 1203.65 1482.7 1205.96 1479.5 C 1207.6 1477.24 1207.01 1474.9 1206.56 1472.42 C 1204.49 1470.09 1203.36 1468.22 1200 1467.87 C 1188.07 1466.65 1172.46 1476.24 1161.75 1481.22 C 1129.96 1495.99 1099.31 1513.64 1068.9 1531.07 L 914.978 1626.6 L 834.294 1681.9 C 807.243 1700.35 777.178 1724.88 745.188 1733.13 C 719.563 1739.75 694.793 1732.54 676.802 1713.41 C 660.15 1695.71 652.407 1677.01 647.641 1653.61 C 693.761 1602.95 735.594 1543.75 764.111 1481.32 C 773.338 1461.12 779.734 1439.69 784.33 1418 C 791.268 1385.25 793.665 1351.21 781.813 1319.29 L 852.208 1286.29 C 834.865 1321.14 820.536 1356.63 810.427 1394.27 C 803.895 1418.59 796.974 1446.37 805.262 1471.05 C 812.762 1493.38 827.53 1505.18 847.103 1516.75 L 796.169 1559.06 C 806.268 1554.65 815.89 1548.21 825.202 1542.34 L 855.127 1523.05 C 861.092 1518.83 865.95 1520.16 872.654 1518.88 C 881.958 1517.11 890.278 1513.77 898.099 1508.4 C 909.468 1500.61 919.979 1489.71 928.206 1478.69 C 932.062 1473.52 935.754 1467.22 940.384 1462.79 C 944.953 1458.42 951.459 1454.94 956.779 1451.53 L 989.532 1430.82 C 997.315 1425.88 1006.06 1418.56 1014.48 1415.14 C 1033.48 1421.81 1051.42 1424.59 1070.39 1415.5 C 1080.13 1410.83 1088.69 1403.86 1097.17 1397.25 C 1118.39 1415.16 1134.96 1430.01 1164.5 1427.7 C 1171.84 1427.12 1178.8 1425.57 1185.79 1423.25 L 1186.31 1424.31 C 1195.57 1443.04 1209.56 1459.87 1230.07 1466.49 C 1239.35 1469.49 1251.9 1470.75 1260.94 1466.22 C 1262.84 1465.26 1264.65 1463.99 1266.26 1462.6 C 1284.17 1468.9 1298.11 1471.47 1316.85 1465.26 C 1357.88 1451.68 1381.54 1409.07 1399.83 1372.81 C 1406.99 1388.47 1412.78 1404.06 1421.72 1418.91 C 1424.97 1424.31 1428.29 1430.21 1433.54 1433.92 C 1437.91 1437.01 1444.5 1436.98 1449.5 1435.91 C 1453.89 1434.97 1457.51 1432.06 1459.39 1427.98 C 1464.5 1416.88 1466.05 1401.93 1468.99 1390 L 1485.31 1329.43 C 1492.83 1303.38 1500.42 1279.16 1515.76 1256.44 z"/>
<path transform="translate(0,0)" fill="rgb(254,254,254)" d="M 669.391 1692.5 L 671.19 1692.54 C 675.79 1698.4 681.282 1703.19 686.799 1708.17 L 686.5 1710.82 C 685.207 1710.85 684.462 1710.99 683.26 1710.6 C 678.931 1709.2 671.63 1702.59 669.216 1698.49 C 667.877 1696.22 668.774 1694.86 669.391 1692.5 z"/>
<path transform="translate(0,0)" fill="rgb(254,254,254)" d="M 948.479 1710.5 C 950.948 1715.15 951.091 1721.53 953.212 1726.5 C 957.05 1735.5 966.256 1744.56 972.47 1752.23 L 962.386 1748.41 C 954.867 1744.55 951.271 1732.86 949.061 1725.27 C 947.563 1720.13 945.771 1715.44 948.479 1710.5 z"/>
<path transform="translate(0,0)" fill="rgb(0,0,0)" d="M 920.989 938.813 C 906.088 931.233 892.69 919.078 883.251 905.338 C 864.762 878.42 864.058 847.616 870.048 816.5 C 874.746 792.098 883.321 767.876 893.393 745.219 C 898.732 733.208 904.862 718.891 916.148 711.37 C 916.495 711.139 917 711.056 917.197 710.689 C 917.43 710.256 915.563 701.39 915.405 700.215 C 914.684 694.842 914.237 687.688 915.695 682.426 C 920.766 664.131 934.598 647.261 947.325 633.559 C 952.98 627.472 959.549 620.786 966.873 616.726 C 972.108 613.824 977.367 612.91 983.146 614.816 C 994.522 618.567 1010.21 635.603 1014.99 646.5 C 1023.85 666.709 986.86 709.984 979.311 729.89 C 982.663 731.891 988.575 730.106 992.281 729.277 C 1001.89 727.129 1011.3 724.115 1020.52 720.692 C 1020.84 720.574 1024.26 719.434 1024.4 719.235 C 1025.64 717.423 1026.32 711.006 1026.87 708.505 C 1030.63 691.486 1033.76 673.56 1034.92 656.126 C 1035.54 646.839 1035.03 637.248 1034.98 627.919 C 1034.97 624.891 1034.42 621.815 1036.1 619.153 L 1037.49 618.94 C 1042.94 618.572 1049.88 622.716 1053.81 626.173 C 1071.1 641.38 1073.7 673.835 1075.21 695.206 C 1084.63 689.938 1125.82 663.339 1129.61 656.149 C 1130.47 654.52 1134.22 649.97 1134.4 648.82 C 1134.5 648.143 1131.68 642.804 1131.27 641.887 C 1129.46 637.801 1128.16 633.717 1127.54 629.288 C 1125.35 613.558 1126.85 597.204 1129.89 581.719 C 1132.82 566.759 1137.66 552.388 1145.15 539.088 C 1147.93 534.164 1151.06 529.114 1156 526.091 C 1159.39 524.013 1165.02 524.458 1168.73 525.339 C 1176.06 527.08 1183.26 532.896 1186.86 539.524 C 1194.42 553.439 1194.19 564.611 1193.03 580 C 1191.47 600.576 1186.43 619.643 1180.44 639.305 C 1198.86 639.132 1213.28 635.154 1230.5 629.077 C 1235.24 627.406 1238.09 624.019 1241.68 620.648 C 1245.89 616.697 1249.74 614.2 1255.66 614.573 C 1262.74 615.02 1269.08 618.882 1273.48 624.359 C 1281.65 634.509 1285.44 649.009 1283.28 661.795 C 1280.32 679.375 1268.11 697.804 1260.05 713.584 L 1228.69 779.041 C 1216.21 806.067 1201.71 834.9 1198.08 864.71 C 1220.26 841.215 1235.06 810.571 1251.54 783.047 L 1290.23 721.389 L 1322.44 678.625 C 1339.82 654.526 1353.73 630.963 1376.35 611.01 C 1387.2 601.444 1403.29 589.817 1418.5 591.312 C 1439.79 593.405 1452.76 611.545 1465.78 626.365 L 1561.11 385.68 L 1575.9 349.104 C 1578.39 342.843 1580.65 335.784 1584.07 330 C 1586.12 326.533 1587.92 324.965 1591.5 323.192 C 1599.44 322.474 1606.67 324.539 1613.11 329.315 C 1622.56 336.307 1629.13 347.611 1630.84 359.234 L 1631.08 361 C 1632.46 370.619 1631.42 379.629 1629.1 389 C 1624.11 409.205 1614.74 428.708 1606.61 447.856 L 1583.63 503.705 L 1512.1 696.161 L 1486.23 787.742 L 1556.51 769.711 L 1599.05 760.5 C 1603.29 759.615 1610.99 759.324 1614.61 757.608 C 1618.97 755.538 1625.48 727.868 1638.37 722.408 C 1643.35 720.299 1648.66 719.317 1653.74 721.404 L 1649.88 722.427 C 1660.14 723.077 1667.66 725.297 1674.83 733.156 C 1676.12 734.569 1681.46 742.58 1682.41 742.88 C 1689.8 757.266 1696.01 771.614 1690.58 787.912 L 1685.69 800.157 C 1757.29 811.797 1835.1 834.014 1880.02 895.566 C 1891.66 911.524 1896.92 929.029 1901.91 947.849 C 1914.21 952.809 1932.69 959.412 1937.82 973 C 1938.49 974.752 1938.77 976.499 1937.92 978.217 C 1936.48 981.129 1934.27 982.761 1931.16 983.623 C 1922.12 986.137 1911.63 983.558 1902.61 981.768 L 1615.73 952.933 L 1594.79 1000.81 C 1592.71 1006.23 1589.86 1012.08 1588.42 1017.67 L 1561.23 1095.24 L 1564.61 1097.25 L 1562.9 1110.17 C 1557.81 1118.8 1553.97 1130.46 1547.49 1137.89 L 1532.4 1177.96 C 1552.23 1153.84 1623.57 1060.2 1651.02 1057.51 C 1657.22 1056.9 1662.23 1059.46 1666.83 1063.41 C 1677.73 1072.75 1690.87 1090.3 1691.79 1104.86 C 1692.2 1111.45 1690.56 1117.72 1688.39 1123.88 C 1681.08 1144.64 1669.86 1164.88 1661.1 1185.18 L 1648.45 1215.5 C 1646.23 1221.16 1644.41 1227.65 1641.66 1233.02 L 1710.72 1235.13 L 1727.74 1204.45 C 1731.2 1198.63 1734.38 1192.45 1740.5 1189.12 C 1743.34 1189.44 1745.74 1190.1 1747.66 1192.33 C 1751.34 1196.6 1750.98 1203.07 1750.16 1208.25 C 1748.56 1218.29 1745.25 1230.54 1740.76 1239.71 C 1722.6 1287.54 1699.68 1331.79 1675.53 1376.81 C 1668.57 1389.77 1660.22 1402.1 1653.62 1415.23 C 1648.75 1421.56 1644.94 1429.19 1640.68 1435.97 L 1613.62 1475.99 C 1605.9 1486.49 1596.32 1498.56 1583.65 1503.07 C 1573.91 1506.53 1563.21 1505.7 1554.08 1500.83 C 1537.88 1492.19 1529.83 1471.12 1525.33 1454.34 C 1521.34 1439.45 1520.78 1423.97 1520.96 1408.64 C 1521.67 1347.27 1543.56 1283.73 1566.88 1227.47 C 1580.05 1195.69 1594.92 1163.44 1612.26 1133.73 C 1595.95 1148.13 1582.34 1165.55 1568.99 1182.61 L 1515.76 1256.44 C 1500.42 1279.16 1492.83 1303.38 1485.31 1329.43 L 1468.99 1390 C 1466.05 1401.93 1464.5 1416.88 1459.39 1427.98 C 1457.51 1432.06 1453.89 1434.97 1449.5 1435.91 C 1444.5 1436.98 1437.91 1437.01 1433.54 1433.92 C 1428.29 1430.21 1424.97 1424.31 1421.72 1418.91 C 1412.78 1404.06 1406.99 1388.47 1399.83 1372.81 C 1381.54 1409.07 1357.88 1451.68 1316.85 1465.26 C 1298.11 1471.47 1284.17 1468.9 1266.26 1462.6 C 1264.65 1463.99 1262.84 1465.26 1260.94 1466.22 C 1251.9 1470.75 1239.35 1469.49 1230.07 1466.49 C 1209.56 1459.87 1195.57 1443.04 1186.31 1424.31 L 1185.79 1423.25 C 1178.8 1425.57 1171.84 1427.12 1164.5 1427.7 C 1134.96 1430.01 1118.39 1415.16 1097.17 1397.25 C 1088.69 1403.86 1080.13 1410.83 1070.39 1415.5 C 1051.42 1424.59 1033.48 1421.81 1014.48 1415.14 C 1006.06 1418.56 997.315 1425.88 989.532 1430.82 L 956.779 1451.53 C 951.459 1454.94 944.953 1458.42 940.384 1462.79 C 935.754 1467.22 932.062 1473.52 928.206 1478.69 C 919.979 1489.71 909.468 1500.61 898.099 1508.4 C 890.278 1513.77 881.958 1517.11 872.654 1518.88 C 865.95 1520.16 861.092 1518.83 855.127 1523.05 L 825.202 1542.34 C 815.89 1548.21 806.268 1554.65 796.169 1559.06 L 847.103 1516.75 C 827.53 1505.18 812.762 1493.38 805.262 1471.05 C 796.974 1446.37 803.895 1418.59 810.427 1394.27 C 820.536 1356.63 834.865 1321.14 852.208 1286.29 L 781.813 1319.29 C 793.665 1351.21 791.268 1385.25 784.33 1418 C 779.734 1439.69 773.338 1461.12 764.111 1481.32 C 735.594 1543.75 693.761 1602.95 647.641 1653.61 L 617.569 1682.51 C 586.339 1710.74 549.34 1736.81 505.25 1734.35 C 471.227 1732.46 442.14 1713.33 420.092 1688.31 C 407.28 1673.77 394.922 1654.46 392.753 1634.74 C 392.202 1629.72 392.881 1624.19 393.188 1619.15 L 396.906 1626.43 C 403.165 1637.55 416.3 1646.8 428.62 1649.76 C 459.59 1657.18 492.361 1640.96 517.743 1624.84 C 541.051 1610.03 561.124 1589.3 579.838 1569.22 C 597.005 1550.8 612.743 1531.33 628.141 1511.42 C 653.245 1478.97 676.507 1444.5 693.249 1406.93 C 699.774 1392.29 705.614 1377.67 709.086 1361.98 C 711.713 1353.58 712.637 1342.23 710.593 1333.59 C 708.356 1324.14 700.699 1318.63 692.8 1314.05 L 624.789 1352.51 L 526.307 1399.66 C 526.608 1402.36 524.652 1407.83 524.023 1410.59 L 515.116 1447.3 C 501.89 1506.2 489.471 1569.38 499.459 1629.69 C 486.364 1634.28 473.116 1633.94 460.505 1627.69 C 446.634 1620.81 438.867 1606.81 434.482 1592.53 C 427.217 1568.87 427.056 1544.2 428.928 1519.75 C 432.785 1469.37 444.419 1419.82 456.477 1370.86 C 472.562 1305.56 490.949 1241 513.559 1177.65 C 522.933 1151.39 531.208 1125.87 544.45 1101.14 C 533.402 1109.2 522.729 1118.79 514.51 1129.77 C 510.595 1135 507.945 1141.13 504.926 1146.89 C 498.727 1158.72 493.183 1170.04 488.445 1182.58 C 486.514 1176.63 482.153 1162.76 476.955 1159.51 C 474.08 1157.72 465.8 1159.55 462.976 1160.7 C 447.093 1167.19 431.686 1176.55 416.465 1184.52 L 293.823 1252.32 L 238.805 1283.52 C 232.003 1287.55 224.112 1291.37 217.937 1296.2 L 179.14 1319.85 C 169.409 1325.99 137.961 1349.6 127.635 1349.57 C 125.342 1349.56 123.128 1348.45 121.634 1346.76 C 119.396 1344.21 118.567 1341.68 119.048 1338.33 C 119.696 1333.82 121.98 1328.82 125.001 1325.42 C 131.683 1317.89 141.772 1311.49 149.825 1305.41 L 223.122 1252.43 L 410.353 1136.79 L 451.587 1112.16 L 452.229 1109.08 C 457.811 1084.07 478.817 1065.68 499.727 1052.65 C 534.396 1031.04 572.775 1014.21 612.492 1004.74 C 633.719 999.678 656.491 996.413 678.344 998.384 C 693.238 999.727 705.755 1004.65 720.023 1007.97 C 731.831 1016.28 743.319 1023.5 753.471 1033.94 C 751.533 1027.83 746.575 1024.53 741.726 1020.82 C 751.719 1013.93 763.52 1009.29 774.207 1003.47 C 798.708 990.138 822.746 976.42 848.605 965.805 L 894.637 948.273 C 903.117 945.239 911.92 942.746 920.183 939.169 L 920.989 938.813 z"/>
<path transform="translate(0,0)" fill="rgb(254,254,254)" d="M 1538.09 951.658 L 1541.16 952.542 L 1530.65 975.421 C 1529.62 969.535 1533.24 958.451 1534.35 952.288 L 1538.09 951.658 z"/>
<path transform="translate(0,0)" fill="rgb(0,176,157)" d="M 1403.22 1267.97 C 1408.21 1268.21 1415.75 1265.11 1420.77 1263.95 L 1409.79 1283.27 C 1407.36 1278.43 1404.55 1273.24 1403.22 1267.97 z"/>
<path transform="translate(0,0)" fill="rgb(0,176,157)" d="M 1561.23 1095.24 L 1564.61 1097.25 L 1562.9 1110.17 C 1557.81 1118.8 1553.97 1130.46 1547.49 1137.89 C 1547.91 1131.85 1550.66 1126.34 1552.82 1120.74 C 1556.04 1112.38 1559.26 1103.99 1561.23 1095.24 z"/>
<path transform="translate(0,0)" fill="rgb(254,254,254)" d="M 1403.22 1267.97 L 1402.15 1265.51 C 1406.04 1261.83 1410.67 1259.04 1414.93 1255.8 L 1436.48 1238.82 L 1420.77 1263.95 C 1415.75 1265.11 1408.21 1268.21 1403.22 1267.97 z"/>
<path transform="translate(0,0)" fill="rgb(254,254,254)" d="M 1175.38 568.5 L 1176.58 569.278 C 1175.9 586.814 1172.19 603.197 1166.94 619.897 C 1165.6 611.398 1164.9 601.084 1166.6 592.631 C 1168.3 584.194 1170.08 575.488 1175.38 568.5 z"/>
<path transform="translate(0,0)" fill="rgb(81,238,220)" d="M 1239.38 1342.34 C 1245.01 1341.35 1249.64 1340.74 1254.96 1343.26 C 1248.42 1352.54 1242.02 1361.72 1237.24 1372.07 C 1235.26 1365.31 1231.42 1358.84 1230.31 1351.98 L 1239.38 1342.34 z"/>
<path transform="translate(0,0)" fill="rgb(254,254,254)" d="M 1395.26 819.984 L 1430.9 754.262 L 1421.89 815.765 C 1413.23 817.057 1403.95 819.474 1395.26 819.984 z"/>
<path transform="translate(0,0)" fill="rgb(254,254,254)" d="M 1251.19 854.851 L 1284.6 792.865 C 1285.1 800.631 1284.63 808.481 1285.42 816.216 C 1286.49 826.699 1289.7 836.751 1293.11 846.664 L 1265.67 852.325 C 1261.34 853.292 1255.57 855.252 1251.19 854.851 z"/>
<path transform="translate(0,0)" fill="rgb(0,176,157)" d="M 1239.38 1342.34 L 1299.7 1274.31 C 1308.21 1265.38 1316.74 1255.24 1326.79 1248.04 L 1334.38 1266.12 C 1305.49 1289.82 1277.75 1313.29 1254.96 1343.26 C 1249.64 1340.74 1245.01 1341.35 1239.38 1342.34 z"/>
<path transform="translate(0,0)" fill="rgb(0,176,157)" d="M 1345.99 1307.5 L 1347.53 1307.54 C 1347.9 1308.54 1348.04 1308.8 1348.2 1310 C 1350.96 1331.31 1331.5 1359.3 1318.72 1374.88 C 1307.66 1388.36 1294.83 1402.66 1276.5 1404.48 L 1274.22 1402.97 C 1275.02 1395.84 1279.15 1388.8 1282.52 1382.59 C 1298.03 1354.01 1321.07 1328.32 1345.99 1307.5 z"/>
<path transform="translate(0,0)" fill="rgb(0,176,157)" d="M 1313.82 1210 C 1313.13 1211.83 1313.18 1212.44 1311.6 1213.69 C 1300.6 1222.39 1290.82 1233.52 1280.92 1243.5 L 1204.99 1325.06 C 1208.68 1304.07 1216.66 1282.51 1224.26 1262.68 C 1225.3 1259.96 1227.4 1252.58 1229.37 1250.66 C 1237.39 1247.9 1245.06 1243.67 1252.7 1239.98 L 1296.02 1218.57 C 1301.83 1215.74 1307.61 1211.76 1313.82 1210 z"/>
<path transform="translate(0,0)" fill="rgb(0,176,157)" d="M 960.507 1266.41 C 973.569 1271.22 984.42 1273.84 998.285 1275.09 L 906.863 1408.44 C 906.628 1395.13 912.733 1379.53 917.003 1367.04 C 928.785 1332.58 942.635 1298.2 960.507 1266.41 z"/>
<path transform="translate(0,0)" fill="rgb(254,254,254)" d="M 1647.94 880.183 C 1692.33 881.63 1734.35 884.144 1775.21 903.5 C 1787.33 909.242 1798.7 916.768 1810.07 923.85 C 1810.16 925.263 1810.38 924.745 1809.85 925.523 L 1638.42 901.98 L 1647.94 880.183 z"/>
<path transform="translate(0,0)" fill="rgb(0,176,157)" d="M 1471.72 1127.68 L 1462.34 1159.11 C 1460.71 1164.97 1459.38 1171.67 1456.82 1177.18 C 1452.99 1185.43 1440.08 1193.04 1432.92 1198.56 L 1388.11 1232.77 C 1380.68 1214.54 1377.53 1198.08 1373.74 1179.01 C 1404.09 1159.49 1438.04 1140.48 1471.72 1127.68 z"/>
<path transform="translate(0,0)" fill="rgb(254,254,254)" d="M 697.316 1061.48 C 706.122 1063.9 715.292 1067.91 720.119 1076.21 C 724.891 1084.43 723.25 1095.91 720.508 1104.59 C 713.937 1125.38 698.03 1143.29 683.014 1158.53 C 658.848 1183.05 632.276 1204.11 602.995 1222.22 C 595.652 1226.76 588.379 1231.8 580.663 1235.68 L 576.731 1237.56 C 579.702 1228.16 583.538 1218.13 585.343 1208.45 C 625.328 1182.64 685.949 1135.99 702.085 1089.87 C 706.726 1076.6 703.454 1074.34 697.95 1062.83 L 697.316 1061.48 z"/>
<path transform="translate(0,0)" fill="rgb(254,254,254)" d="M 1011.02 753.395 L 1014 753.122 L 1014.99 754.5 C 1003.3 793.396 987.392 829.524 963.466 862.514 C 955.072 874.087 947.124 884.861 934.5 891.985 L 931.5 892.58 C 929.632 883.284 933.313 869.226 935.283 859.958 C 943.024 823.537 953.556 787.682 969.154 753.784 C 983.426 755.27 996.773 755.673 1011.02 753.395 z"/>
<path transform="translate(0,0)" fill="rgb(254,254,254)" d="M 1486.23 787.742 L 1556.51 769.711 L 1599.05 760.5 C 1603.29 759.615 1610.99 759.324 1614.61 757.608 C 1618.97 755.538 1625.48 727.868 1638.37 722.408 C 1643.35 720.299 1648.66 719.317 1653.74 721.404 L 1649.88 722.427 C 1646.51 723.676 1643.71 724.022 1641.99 727.5 C 1639.1 733.323 1638.2 740.278 1636.48 746.5 C 1634.93 752.139 1632.4 757.626 1629.9 762.896 L 1606.33 808.643 L 1562.91 898.934 L 1544.28 898.126 L 1596.02 792.361 C 1591.33 791.218 1584.92 792.555 1580 792.878 C 1547.1 795.039 1515.12 802.557 1482.42 805.365 L 1486.23 787.742 z"/>
<path transform="translate(0,0)" fill="rgb(254,254,254)" d="M 1442.48 649.008 L 1443.5 648.953 C 1448.33 648.772 1452.54 649.617 1456.18 653 C 1456.35 659.658 1453.55 667.316 1451.76 673.697 C 1450.06 679.748 1448.63 686.898 1445.69 692.478 C 1439.83 703.596 1429.49 714.14 1422.6 724.891 C 1399.43 761.001 1380.32 803.03 1351.33 834.735 L 1342.45 843.823 C 1348.69 808.704 1359.98 774.761 1373.82 741.938 C 1387.05 710.546 1409.3 662.537 1442.48 649.008 z"/>
<path transform="translate(0,0)" fill="rgb(254,47,51)" d="M 526.307 1399.66 L 553.858 1308.32 C 585.66 1304.49 618.54 1302.94 650.483 1305.79 C 665.219 1307.1 678.934 1308.62 692.8 1314.05 L 624.789 1352.51 L 526.307 1399.66 z"/>
<path transform="translate(0,0)" fill="rgb(254,254,254)" d="M 1373.74 1179.01 L 1372.39 1159.5 C 1371.85 1124.97 1385.77 1085.92 1410.44 1061.36 C 1413.91 1057.91 1416.12 1056.12 1421 1056.11 L 1423.14 1058.5 C 1426.91 1068.98 1417.3 1083.07 1416.54 1093.6 C 1416.34 1096.36 1417.24 1096.47 1418.92 1098.5 C 1422.03 1099.21 1423.98 1099.42 1427 1098.1 C 1438.83 1092.92 1442.4 1081.76 1446.82 1070.73 C 1463.37 1069.55 1480.8 1065.51 1496.51 1060.26 L 1471.72 1127.68 C 1438.04 1140.48 1404.09 1159.49 1373.74 1179.01 z"/>
<path transform="translate(0,0)" fill="rgb(0,176,157)" d="M 1641.66 1233.02 L 1710.72 1235.13 L 1590.49 1420.69 C 1591.9 1401.74 1596.54 1383.26 1600.84 1364.81 C 1611.25 1320.15 1624.41 1275.55 1641.66 1233.02 z"/>
<path transform="translate(0,0)" fill="rgb(254,47,51)" d="M 1482.42 805.365 C 1515.12 802.557 1547.1 795.039 1580 792.878 C 1584.92 792.555 1591.33 791.218 1596.02 792.361 L 1544.28 898.126 L 1479.68 898.323 C 1478.23 893.37 1476.06 888.291 1475.11 883.263 C 1470.36 858.155 1477.62 830.1 1482.42 805.365 z"/>
<path transform="translate(0,0)" fill="rgb(254,47,51)" d="M 585.343 1208.45 L 596.598 1166.78 C 601.9 1147.11 607.841 1126.66 609.83 1106.36 C 611.112 1093.27 606.945 1085.2 598.786 1075.28 C 627.457 1063.59 666.657 1052.21 697.316 1061.48 L 697.95 1062.83 C 703.454 1074.34 706.726 1076.6 702.085 1089.87 C 685.949 1135.99 625.328 1182.64 585.343 1208.45 z"/>
<path transform="translate(0,0)" fill="rgb(254,47,51)" d="M 1685.69 800.157 C 1757.29 811.797 1835.1 834.014 1880.02 895.566 C 1891.66 911.524 1896.92 929.029 1901.91 947.849 C 1892.15 943.494 1880.73 941.06 1870.37 938.557 L 1809.85 925.523 C 1810.38 924.745 1810.16 925.263 1810.07 923.85 C 1798.7 916.768 1787.33 909.242 1775.21 903.5 C 1734.35 884.144 1692.33 881.63 1647.94 880.183 L 1685.69 800.157 z"/>
<path transform="translate(0,0)" fill="rgb(254,254,254)" d="M 999.172 917.816 C 1011.84 900.465 1021.37 882.135 1030.5 862.764 C 1043.87 834.39 1054.92 804.925 1062.55 774.468 L 1068.69 746.371 C 1069.37 742.533 1069.66 733.71 1071.3 730.584 C 1072.82 727.682 1093.46 715.663 1097.2 713.078 C 1102.49 709.422 1107.4 705.241 1112.3 701.077 C 1107.87 721.919 1099.29 746.008 1103.4 767.562 C 1104.64 774.039 1109.92 783.004 1115.78 786.297 C 1118.23 787.675 1119.84 787.42 1122.5 786.907 C 1125.96 782.642 1127.54 776.251 1129.35 771.12 L 1140.3 740.817 L 1168.86 672.758 L 1204.51 673.883 C 1192.41 693.339 1181.84 713.89 1172.19 734.657 C 1166 747.966 1159.75 761.329 1155.42 775.38 C 1144.49 810.908 1143.76 843.37 1161.62 876.907 L 1058.08 901.482 C 1038.46 906.476 1018.23 910.953 999.172 917.816 z"/>
<path transform="translate(0,0)" fill="rgb(254,47,51)" d="M 1395.26 819.984 C 1403.95 819.474 1413.23 817.057 1421.89 815.765 C 1419.78 841.358 1422.34 865.587 1439.57 885.817 C 1443.58 890.521 1450.29 894.707 1453.39 899.695 C 1322.22 905.294 1193.76 926.325 1066.1 956.287 C 963.044 980.476 862.299 1010.08 763.349 1047.94 C 762.116 1046.2 753.41 1035.1 753.471 1033.94 C 751.533 1027.83 746.575 1024.53 741.726 1020.82 C 751.719 1013.93 763.52 1009.29 774.207 1003.47 C 798.708 990.138 822.746 976.42 848.605 965.805 L 894.637 948.273 C 903.117 945.239 911.92 942.746 920.183 939.169 L 920.989 938.813 C 929.631 941.966 938.91 943.58 948.112 943.407 C 970.267 942.99 984.315 933.189 999.172 917.816 C 1018.23 910.953 1038.46 906.476 1058.08 901.482 L 1161.62 876.907 C 1165.31 881.539 1169.02 885.647 1173.66 889.348 C 1182.29 896.228 1192.03 901.589 1203.5 899.865 C 1225.99 896.485 1239.24 871.558 1251.19 854.851 C 1255.57 855.252 1261.34 853.292 1265.67 852.325 L 1293.11 846.664 L 1297.08 854.5 C 1306.62 871.223 1321.38 883.546 1339.92 888.534 C 1363.65 881.31 1380.84 840.259 1394.73 820.714 L 1395.26 819.984 z"/>
<path transform="translate(0,0)" fill="rgb(254,47,51)" d="M 724.965 1261.22 C 716.863 1259.27 708.98 1255.54 700.962 1253.12 C 692.11 1250.45 682.84 1249.22 673.768 1247.47 C 707.948 1219.62 743.104 1186.63 763.243 1146.85 C 777.956 1117.79 781.739 1093.76 771.513 1062.43 L 948 1018.09 C 1039.21 997.488 1131.17 980.199 1224 968.68 L 1383.12 954.89 L 1496.19 951.041 C 1509.92 951.011 1524.46 950.087 1538.09 951.658 L 1534.35 952.288 C 1533.24 958.451 1529.62 969.535 1530.65 975.421 L 1496.51 1060.26 C 1480.8 1065.51 1463.37 1069.55 1446.82 1070.73 L 1448.91 1064.36 C 1451.63 1053.83 1449.72 1041.38 1444.08 1032.16 C 1438.37 1022.82 1430.73 1016.71 1420 1014.22 C 1406.22 1011.02 1389.89 1015.81 1378.15 1023.14 C 1371.37 1023 1365.09 1024.49 1358.39 1025.18 L 1330.35 1027.52 C 1268.71 1032.72 1206.92 1041.01 1146.41 1054.04 L 1049.4 1078.68 L 980.64 1099.06 C 962.732 1104.78 944.46 1110.59 927.276 1118.21 C 915.118 1096.89 898.303 1075.01 873.719 1067.75 C 868.1 1066.09 863.274 1066.51 858.282 1069.49 C 851.472 1073.55 846.249 1081.8 842.115 1088.42 C 831.875 1104.81 823.469 1122.35 816.834 1140.5 C 812.322 1152.84 808.755 1165.58 803.009 1177.42 C 795.078 1193.78 783.915 1208.77 772.251 1222.62 C 761.875 1234.95 750.208 1247.54 736.342 1255.98 C 732.837 1258.11 728.686 1259.43 724.965 1261.22 z"/>
<path transform="translate(0,0)" fill="rgb(254,254,254)" d="M 724.965 1261.22 C 728.686 1259.43 732.837 1258.11 736.342 1255.98 C 750.208 1247.54 761.875 1234.95 772.251 1222.62 C 783.915 1208.77 795.078 1193.78 803.009 1177.42 C 808.755 1165.58 812.322 1152.84 816.834 1140.5 C 823.469 1122.35 831.875 1104.81 842.115 1088.42 C 846.249 1081.8 851.472 1073.55 858.282 1069.49 C 863.274 1066.51 868.1 1066.09 873.719 1067.75 C 898.303 1075.01 915.118 1096.89 927.276 1118.21 C 944.46 1110.59 962.732 1104.78 980.64 1099.06 L 1049.4 1078.68 L 1146.41 1054.04 C 1206.92 1041.01 1268.71 1032.72 1330.35 1027.52 L 1358.39 1025.18 C 1365.09 1024.49 1371.37 1023 1378.15 1023.14 C 1344.24 1042.44 1321.67 1077.38 1311.49 1114.33 C 1302.24 1147.91 1304.76 1176.7 1313.82 1210 C 1307.61 1211.76 1301.83 1215.74 1296.02 1218.57 L 1252.7 1239.98 C 1245.06 1243.67 1237.39 1247.9 1229.37 1250.66 C 1235.65 1233.43 1243.12 1216.66 1251.38 1200.3 L 1267.4 1169.81 C 1270.34 1164.25 1274.1 1158.3 1275.39 1152.11 C 1276.96 1144.59 1275.52 1137.19 1272.42 1130.25 C 1266.8 1117.62 1253.24 1102.9 1239.99 1098.29 C 1236.07 1096.93 1231.8 1096.4 1227.7 1095.82 C 1205.43 1158.76 1161.65 1213.13 1120.24 1264.69 C 1108.17 1279.73 1095.78 1297 1081.56 1309.94 C 1091.29 1274.62 1104.09 1240.33 1118.63 1206.71 L 1137.33 1162.95 C 1140.62 1155.44 1145.6 1147.84 1147.28 1139.75 C 1148.96 1131.69 1146.21 1124.32 1142.23 1117.4 C 1134.98 1104.81 1122.14 1090.59 1107.66 1086.63 C 1104.16 1085.68 1100.73 1085.41 1097.12 1085.5 C 1093.77 1089.26 1092.44 1095.84 1090.67 1100.54 L 1080.72 1124.63 L 1053.79 1179 C 1037.46 1212.53 1022.49 1246.19 998.285 1275.09 C 984.42 1273.84 973.569 1271.22 960.507 1266.41 C 964.485 1258.66 968.908 1251.43 973.577 1244.11 C 976.949 1238.82 981.79 1232.08 982.5 1225.74 C 983.008 1221.2 981.281 1215.41 979.877 1211.1 C 975.978 1199.13 967.491 1188.38 956.157 1182.7 C 952.923 1181.07 949.63 1180.33 946 1180.84 C 936.581 1182.17 905.221 1196.34 899.591 1182.33 C 896.475 1174.57 901.378 1162.27 904.89 1155.09 C 907.485 1149.79 910.819 1145.01 914.56 1140.45 C 916.525 1138.06 919.918 1134.87 920.983 1131.97 C 922.041 1129.09 921.648 1126.7 920.69 1123.87 C 915.842 1109.56 897.639 1091.43 884.039 1085.37 C 880.809 1083.93 876.619 1082.6 873.182 1084.02 C 864.295 1087.68 847.022 1125.06 843.727 1133.78 C 833.768 1160.15 831.708 1188.37 843.85 1214.44 C 849.182 1225.89 859.141 1235.53 871.289 1239.46 C 876.558 1241.16 882.345 1241.59 887.833 1242.21 C 890.007 1242.45 893.404 1242.32 895.157 1243.45 C 866.66 1290.45 848.817 1343.16 840.982 1397.5 C 838.317 1415.99 836.271 1436.81 840.843 1455.11 C 844.792 1470.92 851.993 1487.63 866.558 1496.35 C 872.435 1499.87 879.458 1501.52 886.143 1499.68 C 896.075 1496.96 904.312 1488.22 910.549 1480.4 C 922.263 1465.72 931.108 1447.82 940.49 1431.54 L 983.712 1356.78 L 1000.99 1327.2 C 1001.72 1326.08 1002.92 1323.49 1004.18 1323.03 C 1002.42 1341.4 1003.94 1362 1015.84 1377.06 C 1021.55 1384.28 1032.48 1390.92 1041.78 1391.95 C 1052.59 1393.15 1063.3 1390.54 1071.66 1383.43 C 1077.26 1378.68 1082 1372.43 1086.75 1366.83 C 1100.35 1350.79 1111.92 1333.75 1124.16 1316.7 C 1128.39 1310.82 1132.78 1303.07 1137.98 1298.12 C 1131.95 1323.06 1122.75 1356.55 1137.79 1380.02 C 1143.4 1388.76 1152.15 1395.1 1162.32 1397.37 C 1171.83 1399.49 1179.79 1397.02 1187.78 1391.71 C 1203.9 1381 1217.24 1366.1 1230.31 1351.98 C 1231.42 1358.84 1235.26 1365.31 1237.24 1372.07 C 1230.38 1390.53 1226.7 1410.56 1235.11 1429.3 C 1241.34 1443.16 1253.61 1454.55 1266.26 1462.6 C 1264.65 1463.99 1262.84 1465.26 1260.94 1466.22 C 1251.9 1470.75 1239.35 1469.49 1230.07 1466.49 C 1209.56 1459.87 1195.57 1443.04 1186.31 1424.31 L 1185.79 1423.25 C 1178.8 1425.57 1171.84 1427.12 1164.5 1427.7 C 1134.96 1430.01 1118.39 1415.16 1097.17 1397.25 C 1088.69 1403.86 1080.13 1410.83 1070.39 1415.5 C 1051.42 1424.59 1033.48 1421.81 1014.48 1415.14 C 1006.06 1418.56 997.315 1425.88 989.532 1430.82 L 956.779 1451.53 C 951.459 1454.94 944.953 1458.42 940.384 1462.79 C 935.754 1467.22 932.062 1473.52 928.206 1478.69 C 919.979 1489.71 909.468 1500.61 898.099 1508.4 C 890.278 1513.77 881.958 1517.11 872.654 1518.88 C 865.95 1520.16 861.092 1518.83 855.127 1523.05 L 825.202 1542.34 C 815.89 1548.21 806.268 1554.65 796.169 1559.06 L 847.103 1516.75 C 827.53 1505.18 812.762 1493.38 805.262 1471.05 C 796.974 1446.37 803.895 1418.59 810.427 1394.27 C 820.536 1356.63 834.865 1321.14 852.208 1286.29 L 781.813 1319.29 C 775.073 1303.1 768.752 1292.93 756.461 1280.19 C 746.347 1272.32 736.796 1266.17 724.965 1261.22 z"/>
<path transform="translate(0,0)" fill="rgb(0,176,157)" d="M 1154 1180.7 C 1142.38 1199.41 1132.49 1219.07 1117.68 1235.5 L 1116.57 1235.44 L 1115.61 1234 C 1117.16 1222.32 1120.55 1208.6 1125.57 1197.96 C 1130.75 1186.97 1143.4 1184.28 1154 1180.7 z"/>
<path transform="translate(0,0)" fill="rgb(254,47,51)" d="M 1035.71 1145.5 L 1038.12 1146.05 C 1035.93 1153.56 1031.55 1163.83 1027.29 1170.37 C 1024.96 1173.94 1022.11 1175.11 1018.06 1175.94 L 1016.5 1176.24 C 1001.2 1179.23 989.757 1175.53 975.043 1172.03 L 965.95 1170.16 L 1035.71 1145.5 z"/>
<path transform="translate(0,0)" fill="rgb(254,47,51)" d="M 756.461 1280.19 L 818.331 1248.59 C 828.381 1243.65 838.505 1237.63 849.111 1234.02 L 850.101 1234.91 C 857.483 1241.38 866.954 1243.8 876.134 1246.81 L 852.208 1286.29 L 781.813 1319.29 C 775.073 1303.1 768.752 1292.93 756.461 1280.19 z"/>
</svg>